<svg xmlns="http://www.w3.org/2000/svg" xmlns:xlink="http://www.w3.org/1999/xlink" width="986" height="177" viewBox="0 0 986 177">
  <defs>
    <clipPath id="clip-Logo_for_Desktop">
      <rect width="986" height="177"/>
    </clipPath>
  </defs>
  <g id="Logo_for_Desktop" data-name="Logo for Desktop" clip-path="url(#clip-Logo_for_Desktop)">
    <path id="Path_2466" data-name="Path 2466" d="M542.909,151.568l-8.851,4.828v.161a17.968,17.968,0,0,0,8.046,1.609,19.359,19.359,0,0,0,6.115-.8V121.153l-2.414-.161-3.058,2.9v27.679Zm-68.876-18.024v-.8c0-6.6.161-7.242,7.242-16.736l-.161-.161-5.793,3.219h-4.345c-2.253,0-3.058.161-3.862,1.126a3.079,3.079,0,0,0-.644,2.414h-.8a6.708,6.708,0,0,1-1.126-3.7,6.9,6.9,0,0,1,1.931-5.15c1.448-1.448,3.219-1.931,6.276-1.931l6.276.483,4.345-.483.644.322v35.082c0,4.184-.161,5.471-9.173,14.161l.161.322,8.046-2.414h4.989V111.5h2.414v22.047h9.012V117.613l11.426-6.276.644.322-1.287,9.495v35.082l5.471,4.023v.644l-8.368,5.471H506.7l-7.081-6.759v-19.15h-9.012v21.564l-6.759,4.506H468.079l-.322-.644c6.115-7.563,6.6-9.816,6.6-14.161v-11.1H464.217l-.161-.644,4.506-6.276h5.472Zm51.5,7.563c0,5.632,2.092,10.3,4.828,12.874a7.016,7.016,0,0,0,1.77,1.448h.161l1.931-2.414V125.337l8.368-4.506v-.161a70.761,70.761,0,0,0-9.334-.966c-6.115,0-8.529,1.126-10.3,2.9a7.265,7.265,0,0,0-1.931,4.345h-1.288a14.286,14.286,0,0,1-.966-4.828,9.79,9.79,0,0,1,2.9-7.242c2.414-2.414,6.276-3.862,12.391-3.862,4.506,0,11.908,1.448,18.185,1.448,4.345,0,5.632-.644,7.563-3.379l.8.161c-1.448,9.334-4.989,11.908-9.816,11.908h-.483V156.4a16.33,16.33,0,0,0,8.851-7.724l.8.161a16.841,16.841,0,0,1-4.989,11.426c-3.7,3.7-9.334,6.115-16.253,6.115-6.759,0-12.07-2.253-16.093-6.276a21.869,21.869,0,0,1-5.793-14.966,18.972,18.972,0,0,1,5.471-13.518,22.531,22.531,0,0,1,8.207-5.311l.483.644a21.723,21.723,0,0,0-5.472,14.161m47.956-1.77c0-16.575-6.437-31.38-16.736-41.519A60.14,60.14,0,0,0,513.942,80.6c-17.058,0-32.024,6.437-42.806,17.219A58.312,58.312,0,0,0,454.4,139.338c0,16.575,6.437,31.38,16.736,41.519a60.141,60.141,0,0,0,42.806,17.219c17.058,0,32.024-6.437,42.806-17.219a58.705,58.705,0,0,0,16.736-41.519" transform="translate(-437.4 -53.6)" fill="#00b1cd"/>
    <path id="Path_2293" data-name="Path 2293" d="M144.152,381.166,142.4,382.5c-2.162-1.853-6.074-2.677-9.162-2.677a24.019,24.019,0,0,0-10.6,2.471v-.1a22.242,22.242,0,0,1,12.457-3.6c3.089-.1,6.795.721,9.06,2.574m709.941-1.544a3.814,3.814,0,0,1,.824-1.853,10.713,10.713,0,0,1,3.6-.515c4.427,0,10.089,1.03,14,4.942l-1.647,1.029c-3.5-3.4-9.163-4.324-12.972-4.324a10.04,10.04,0,0,0-3.809.72m-447.11,0a3.816,3.816,0,0,1,.824-1.853,10.714,10.714,0,0,1,3.6-.515c4.221,0,9.471,1.235,13.178,4.942l-1.647,1.029c-3.4-3.192-8.648-4.324-12.148-4.324a10.461,10.461,0,0,0-3.809.72m-171.926-6.794a50.968,50.968,0,0,0,10.089,8.545l-2.059,1.338a50.072,50.072,0,0,1-9.883-8.545Zm490.864,0a50.962,50.962,0,0,0,10.089,8.545l-2.059,1.338a50.074,50.074,0,0,1-9.883-8.545Zm-178.618,0a50.966,50.966,0,0,0,10.089,8.545l-2.059,1.338a50.068,50.068,0,0,1-9.883-8.545Zm147.939-.618a43.12,43.12,0,0,0,11.016,9.163L704.2,382.71a47.142,47.142,0,0,1-10.81-9.162Zm-490.967,0a44.971,44.971,0,0,0,11.016,9.163l-2.059,1.338a47.143,47.143,0,0,1-10.81-9.162Zm254.492-1.338a72.846,72.846,0,0,0,14.413,10.912l-2.059,1.441a70.776,70.776,0,0,1-14.207-11.016Zm42,11.839a33.816,33.816,0,0,1-9.677-8.648V363.973a76.654,76.654,0,0,0-.412-9.059l2.162-.824c.1,2.471.309,5.662.309,8.854v10.4c1.75,2.574,5.662,5.662,9.677,7.927Zm381.119-8.339v-17.81l-6.074-2.677,1.235-1.338,6.9,2.985v20.487l-.309.1Zm-447.934,0v-17.81l-6.074-2.677,1.235-1.338,6.9,2.985v20.487l-.309.1Zm72.168-16.884c0-3.6.1-6.795.721-8.854a51.6,51.6,0,0,0,9.162,1.647V371.9c-1.647.721-3.4,1.338-4.839,2.059a23.315,23.315,0,0,1-4.942-3.81V357.488ZM155.786,338.442h14.825v1.75H155.786Zm-39.327,2.265,1.853-2.265H129.74v1.75H124.8a49.061,49.061,0,0,0-8.339.515M306.3,381.372l-2.059,1.338a36.872,36.872,0,0,1-10.5-9.574V343.692c0-7-.1-9.986-.309-12.457l2.265-.926v42.106c2.574,3.706,6.383,6.383,10.6,8.957M492.225,338.03c3.6-2.471,7-5.148,10.4-7.927a36.457,36.457,0,0,0,13.383,5.662v12.251c-10.6-.927-18.222-4.324-23.781-9.986M825.061,330.1l.309-.1a102.136,102.136,0,0,0,9.986,16.678l-10.295,5.559Zm46.018,27.282-1.338,1.441-13.589-6.383V337.1a64.105,64.105,0,0,0-.412-7.1l2.471-.721v22.134Zm-447.934,0-1.338,1.441-13.589-6.383V337.1a64.087,64.087,0,0,0-.412-7.1l2.471-.721v22.134Zm257.065,15.236c-5.559,6.383-15.545,11.222-26.664,11.222-11.736,0-21-3.809-27.9-10.5a32.985,32.985,0,0,1-9.677-23.884c0-7.927,3.191-14.722,9.06-20.487l.1.1c-4.942,6.074-7.1,11.839-7.1,19.457A32.669,32.669,0,0,0,627.707,372c6.383,6.383,15.236,9.883,26.561,9.883,10.81,0,19.458-3.4,25.943-9.265Zm-221.65-42.93h-3.6l1.03-1.853h2.574Zm28.311-1.75-1.647,2.162c-1.853-.309-3.6-.412-9.677-.412v-1.853h11.118ZM826.4,383.019a130.789,130.789,0,0,1-16.575-17.09V339.883c0-5.147-.309-9.677-.515-11.427l2.162-.515a84.688,84.688,0,0,1,.412,10.089v27.075a132.448,132.448,0,0,0,16.472,16.678Zm-298.863-1.647-2.059,1.338a40.994,40.994,0,0,1-8.236-9.265V334.839a37.682,37.682,0,0,1-13.8-5.765l1.441-1.441c3.192,2.574,9.162,4.736,14.31,5.971v39.018a50.508,50.508,0,0,0,8.339,8.751m-252.947,0-2.059,1.338a48.323,48.323,0,0,1-8.648-7.824V332.574a18.144,18.144,0,0,0-4.942-4.839l1.853-.824a20.1,20.1,0,0,1,5.148,5.147v42.107a46.293,46.293,0,0,0,8.648,7.206m312.143,0-2.059,1.338a48.335,48.335,0,0,1-8.648-7.824V332.574a18.143,18.143,0,0,0-4.941-4.839l1.853-.824a20.1,20.1,0,0,1,5.148,5.147v42.107a49.929,49.929,0,0,0,8.648,7.206m178.721,0-2.059,1.338a48.334,48.334,0,0,1-8.648-7.824V332.574a18.142,18.142,0,0,0-4.942-4.839l1.853-.824a20.1,20.1,0,0,1,5.147,5.147v42.107a49.924,49.924,0,0,0,8.648,7.206m27.8,0-2.059,1.338a48.328,48.328,0,0,1-8.648-7.824V332.574a17.788,17.788,0,0,0-5.147-4.942l1.853-.824a22.826,22.826,0,0,1,5.25,5.25v42.107a55.4,55.4,0,0,0,8.751,7.206m-244.917-10.5V332.265a21.157,21.157,0,0,0-4.324-4.736l1.75-.927a25.921,25.921,0,0,1,4.633,4.839v37.885l-1.853,1.441h-.206Zm147.939-.721V332.265a24.173,24.173,0,0,0-4.324-4.736l1.75-.927a26.033,26.033,0,0,1,4.633,4.839v37.268l-1.853,1.441h-.206Zm-342,2.265c2.265,3.5,6.383,6.589,10.5,8.854l-2.059,1.338a32.057,32.057,0,0,1-10.5-9.574V330.721a19.378,19.378,0,0,0-4.633-3.191l1.75-.927a25.718,25.718,0,0,1,4.839,3.6v42.209Zm372.781-1.544V332.265a21.157,21.157,0,0,0-4.324-4.736l1.75-.927a25.927,25.927,0,0,1,4.633,4.839v37.885l-1.853,1.441h-.206Zm-521.646-.721V332.265a24.168,24.168,0,0,0-4.324-4.736l1.75-.927a26.04,26.04,0,0,1,4.633,4.839v37.268l-1.853,1.441h-.206Zm30.679.721V332.265a21.158,21.158,0,0,0-4.324-4.736l1.75-.927a25.917,25.917,0,0,1,4.633,4.839v37.885l-1.853,1.441h-.206ZM380.01,329.177a16.9,16.9,0,0,0-2.986-2.059l1.75-.927a15.491,15.491,0,0,1,3.191,2.471v43.959a34.661,34.661,0,0,0,8.236,8.751l-2.059,1.338a30.84,30.84,0,0,1-8.236-9.574V329.177Zm-70.624,10.6c0-8.751.309-12.148,1.338-15.236,2.574,1.441,5.559,3.191,9.163,5.353v41.694c-1.853.72-3.809,1.441-5.559,2.265a22.84,22.84,0,0,1-4.941-4.015Zm581.871-7.824-1.441,1.853a7.675,7.675,0,0,1-2.677.412,21.75,21.75,0,0,1-16.678-7.824v-2.059h.309c4.941,5.662,11.016,8.133,16.987,8.133a10.627,10.627,0,0,0,3.5-.721Zm-447.831,0-1.441,1.853a7.674,7.674,0,0,1-2.677.412,21.75,21.75,0,0,1-16.678-7.824v-2.059h.309c4.942,5.662,11.016,8.133,16.987,8.133a10.628,10.628,0,0,0,3.5-.721Zm392.959,14.207a125.337,125.337,0,0,1-11.324-19.251V323.72l.309-.1a118.3,118.3,0,0,0,12.766,21.722Zm-87.2,28.62-.824-1.338c-1.03.411-2.059.823-2.986,1.235a12.6,12.6,0,0,1-2.677-1.853v-41.8c1.75-.926,3.809-1.853,5.765-2.677a17.894,17.894,0,0,1,4.942,4.735V375.71a45.88,45.88,0,0,0,9.883,8.854h.309a146.2,146.2,0,0,1,14.722-9.883l-.823-1.338-2.883,1.235a17.01,17.01,0,0,1-4.221-3.4V331.03c1.75-.926,3.809-1.853,5.765-2.677a17.9,17.9,0,0,1,4.942,4.735V375.71a45.89,45.89,0,0,0,9.883,8.853h.309c5.353-4.015,9.574-7,15.751-10.81l-.824-1.338a43.352,43.352,0,0,1-4.015,1.75,12.055,12.055,0,0,1-4.015-2.986V328.971a26.792,26.792,0,0,0-10.6-10.81h-.309a64.4,64.4,0,0,0-17.09,10.4,25.276,25.276,0,0,0-10.4-10.4h-.309a61.382,61.382,0,0,0-16.884,10.3,38.643,38.643,0,0,0-9.471-10.3h-.309a88.659,88.659,0,0,0-16.987,11.633l1.03,1.236c1.338-.926,2.986-1.853,4.427-2.677a34.471,34.471,0,0,1,4.221,4.427v38.812c-1.235.927-2.265,1.75-3.4,2.574v.309a58.615,58.615,0,0,0,11.633,10.089h.309a135.707,135.707,0,0,1,15.134-9.78M229.91,373.651l-.824-1.339c-1.75.721-3.191,1.339-4.633,2.059a18.216,18.216,0,0,1-3.5-2.471V328.456a36.128,36.128,0,0,0-9.471-10.4h-.309a88.637,88.637,0,0,0-16.987,11.633l1.029,1.236a50.7,50.7,0,0,1,4.427-2.677,34.464,34.464,0,0,1,4.221,4.427v37.988a38.569,38.569,0,0,1-3.4,2.677v.309a51.216,51.216,0,0,0,12.56,10.81h.309c5.662-4.015,9.986-6.9,16.575-10.81m341.9.412-.823-1.338c-1.647.721-2.986,1.236-4.427,1.853a13.4,13.4,0,0,1-2.574-1.853v-41.8c1.75-.927,3.809-1.853,5.765-2.677a17.9,17.9,0,0,1,4.942,4.735v42.622a45.889,45.889,0,0,0,9.883,8.853h.309a155.161,155.161,0,0,1,15.751-10.81l-.824-1.339a43.169,43.169,0,0,1-4.015,1.75,12.059,12.059,0,0,1-4.015-2.985v-42.21a26.794,26.794,0,0,0-10.6-10.81h-.309a61.381,61.381,0,0,0-16.884,10.3,38.647,38.647,0,0,0-9.471-10.3H554.2a88.633,88.633,0,0,0-16.986,11.633l1.029,1.236a50.648,50.648,0,0,1,4.427-2.677,34.475,34.475,0,0,1,4.221,4.427v38.812a36.308,36.308,0,0,1-3.4,2.574v.309a58.614,58.614,0,0,0,11.633,10.089h.309a148.568,148.568,0,0,1,16.369-10.4M367.862,327.015a41.487,41.487,0,0,0-9.883-8.854h-.309c-5.971,3.6-9.677,6.486-15.751,10.81l.824,1.339c1.235-.721,2.471-1.339,3.6-2.059a21.257,21.257,0,0,1,4.427,3.192v42.312a36.39,36.39,0,0,0,11.736,10.6h.309c4.942-3.6,10.4-7.309,15.648-10.5a43.672,43.672,0,0,0,9.574,10.5h.309c5.353-3.912,11.325-8.236,16.369-11.427l-.824-1.338c-1.647.72-3.088,1.441-4.633,2.162a21.564,21.564,0,0,1-3.6-3.192V331.03c1.235-.927,2.162-1.75,3.4-2.574v-.309a88.115,88.115,0,0,0-11.633-10.089h-.309c-6.177,3.6-10.4,6.383-16.369,10.5l.824,1.339,4.015-2.162a17.29,17.29,0,0,1,2.986,2.059v41.695c-2.059.823-3.912,1.647-5.765,2.471a22.855,22.855,0,0,1-4.942-4.016Zm353.014,46.636-.824-1.339c-1.75.721-3.191,1.339-4.633,2.059a18.22,18.22,0,0,1-3.5-2.471V328.456a36.121,36.121,0,0,0-9.471-10.4h-.309a88.632,88.632,0,0,0-16.987,11.633l1.029,1.236a50.668,50.668,0,0,1,4.427-2.677,34.488,34.488,0,0,1,4.221,4.427v37.988a38.614,38.614,0,0,1-3.4,2.677v.309a51.217,51.217,0,0,0,12.56,10.81h.309a185.151,185.151,0,0,1,16.575-10.81m-461.317.412-.824-1.338c-1.647.721-2.986,1.236-4.427,1.853a13.4,13.4,0,0,1-2.574-1.853v-41.8c1.75-.927,3.809-1.853,5.765-2.677a17.9,17.9,0,0,1,4.942,4.735v42.622a45.9,45.9,0,0,0,9.883,8.853h.309a155.121,155.121,0,0,1,15.751-10.81l-.824-1.339a43.214,43.214,0,0,1-4.015,1.75,12.058,12.058,0,0,1-4.015-2.985v-42.21a26.8,26.8,0,0,0-10.6-10.81h-.309a61.379,61.379,0,0,0-16.884,10.3,38.653,38.653,0,0,0-9.471-10.3h-.309a88.644,88.644,0,0,0-16.987,11.633l1.03,1.236a50.657,50.657,0,0,1,4.427-2.677,34.483,34.483,0,0,1,4.221,4.427v38.812a36.27,36.27,0,0,1-3.4,2.574v.309a58.609,58.609,0,0,0,11.633,10.089h.309a158.958,158.958,0,0,1,16.369-10.4m565.5-15.237v-3.191l25.737-13.8v-.412a226.739,226.739,0,0,1-14.928-23.472h-.309a192.423,192.423,0,0,1-27.9,9.471,89.648,89.648,0,0,1,.823,13.59v25.531a124.38,124.38,0,0,0,17.4,17.913h.515a281.523,281.523,0,0,1,24.3-14.413l-1.235-1.853c-3.912,1.853-7.1,3.5-10.3,4.941a102.925,102.925,0,0,1-14.1-14.31M525.375,384.46h.309c5.353-3.912,11.324-8.236,16.369-11.427l-.824-1.338c-1.647.721-3.088,1.441-4.632,2.162a21.538,21.538,0,0,1-3.6-3.191v-32.12c0-6.074.1-8.648.824-11.427-6.9-1.647-17.81-5.971-22.237-9.163h-.309a100.145,100.145,0,0,1-22.546,19.56v.412a31.663,31.663,0,0,0,15.957,10.089,134.933,134.933,0,0,1-15.648,6.383,69.868,69.868,0,0,1,.721,10.295v10.295a33.3,33.3,0,0,0,10.913,9.677h.309c4.839-3.5,10.089-7,15.237-10.3a42.553,42.553,0,0,0,9.163,10.089m345.6.309a86.035,86.035,0,0,1,25.943-12.045,31.1,31.1,0,0,1-.721-7.412V348.634l-15.957-7h-.412l-4.633,5.148-4.839-2.162V328.456a22.383,22.383,0,0,0,16.369,7,18.993,18.993,0,0,0,3.5-.412c4.015-4.015,7.412-11.325,7.412-16.884a6.886,6.886,0,0,0-2.059,0,14.662,14.662,0,0,1-.412,3.5,10.243,10.243,0,0,1-3.912.824,16.018,16.018,0,0,1-11.016-4.736h-.309c-6.589,4.736-16.472,8.854-25.943,11.325a45.413,45.413,0,0,1,.721,9.06V353.37l14.928,6.795h.412l4.736-5.25,5.662,2.471v16.06c-4.839-4.427-12.148-6.383-18.325-6.383a19.005,19.005,0,0,0-3.5.412c-4.015,4.015-7.412,11.428-7.412,16.987a6.912,6.912,0,0,0,2.059,0,14.665,14.665,0,0,1,.412-3.5,10.249,10.249,0,0,1,3.912-.823c3.912,0,9.472,1.029,13.075,4.736h.309Zm-447.934,0a86.038,86.038,0,0,1,25.943-12.045,31.09,31.09,0,0,1-.721-7.412V348.634l-15.957-7H431.9l-4.633,5.148-4.839-2.162V328.456a22.383,22.383,0,0,0,16.369,7,18.993,18.993,0,0,0,3.5-.412c4.015-4.015,7.412-11.325,7.412-16.884a6.887,6.887,0,0,0-2.059,0,14.664,14.664,0,0,1-.412,3.5,10.243,10.243,0,0,1-3.912.824,16.019,16.019,0,0,1-11.016-4.736H432.1c-6.589,4.736-16.472,8.854-25.943,11.325a45.415,45.415,0,0,1,.721,9.06V353.37l14.928,6.795h.412l4.736-5.25,5.662,2.471v16.06c-4.736-4.324-11.633-6.383-17.5-6.383a19,19,0,0,0-3.5.412C407.6,371.489,404.2,378.9,404.2,384.46a6.911,6.911,0,0,0,2.059,0,14.669,14.669,0,0,1,.412-3.5,10.25,10.25,0,0,1,3.912-.823c3.6,0,8.751,1.235,12.251,4.736h.206Zm222.577-17.3-.1-.1c.823-2.162.926-3.6.926-9.059V328.456a54.414,54.414,0,0,0-.926-10.089l2.162-.927a60.639,60.639,0,0,1,.823,10.089v29.238c-.1,7-.618,8.442-2.883,10.707m-314.1,13.9-2.059,1.338a39.552,39.552,0,0,1-8.236-9.574V329.177c-21.208-12.045-23.576-13.383-25.634-14.31l-.515-2.986h.1l28,16.472v43.856a41.276,41.276,0,0,0,8.339,9.163m329.747-61.667c0-4.838.1-6.486,2.162-8.545.927.1,2.883.412,4.015.515v58.167a33.182,33.182,0,0,1-9.059,1.236,36.788,36.788,0,0,1-12.766-2.162c5.765-2.265,11.736-4.839,16.369-7.1a73.728,73.728,0,0,1-.721-10.089ZM459.9,325.162c0-5.662-.309-10.295-.515-12.766l2.471-1.75h.1v56.931l-1.853,1.441H459.9ZM139.314,308.278c-5.559,7.824-6.486,9.574-6.486,19.148V353.37c0,11.839-.515,16.575-8.648,26.046l-.1-.1c6.589-8.648,6.795-13.384,6.795-25.326V327.941c0-9.574,1.03-11.325,8.339-19.663Zm44.062,73.094-2.059,1.338a41.692,41.692,0,0,1-9.471-8.545V319.293a56.663,56.663,0,0,0-.926-11.736l2.471-1.75a99.632,99.632,0,0,1,.515,12.56v54.975a38.972,38.972,0,0,0,9.471,8.03M140.24,303.13l.1.1c-3.191,2.162-5.353,2.986-7.721,2.986-2.985,0-5.559-1.441-8.236-1.441a9.02,9.02,0,0,0-6.486,2.471,7.541,7.541,0,0,0-1.647,2.162h-.1a7.744,7.744,0,0,1,2.059-3.809A9.525,9.525,0,0,1,125,303.13c2.883,0,5.765,1.441,8.854,1.441a15.034,15.034,0,0,0,6.383-1.441m62.8-1.235a91,91,0,0,0,8.133,9.059l-1.647,1.029a70.227,70.227,0,0,1-7.927-9.059Zm492.408-.1a108.273,108.273,0,0,0,8.236,9.162l-1.647,1.029a81.264,81.264,0,0,1-8.133-9.162Zm-76.492,17.09a15.385,15.385,0,0,1,3.912-7.721c3.809-3.809,9.471-5.662,16.987-5.662,11.736,0,25.737,3.6,34.9,3.6,4.736,0,8.648-2.059,11.839-7.721l.309.1c-3.4,6.9-7.412,9.265-12.663,9.265-9.163,0-22.958-3.6-34.9-3.6-7.413,0-12.663,1.853-16.369,5.559a16.187,16.187,0,0,0-3.912,6.074h-.1ZM476.68,299.939l-.515-.309c-7.721,4.839-13.8,9.06-18.222,12.457a61.534,61.534,0,0,1,.515,7.927,82.46,82.46,0,0,1-5.559,10.5l.309.412h5.251v38.709c-1.235.926-2.162,1.647-3.4,2.471v.309a72.128,72.128,0,0,0,15.751,12.56h.309a119.931,119.931,0,0,1,16.472-10.4l-.824-1.339a38.317,38.317,0,0,0-3.6,1.647,60.436,60.436,0,0,1-7.721-4.839V331.03h.72a88.139,88.139,0,0,1,9.574.412c4.941-6.486,7.1-10.089,7.927-12.457l-.309-.309a86.705,86.705,0,0,1-12.148.721h-5.765a158.651,158.651,0,0,1,1.235-19.458M329.359,384.46h.309c5.353-3.912,11.324-7.927,16.369-11.222l-.824-1.338c-1.647.721-3.089,1.442-4.633,2.162a22.407,22.407,0,0,1-3.6-3.4v-33.15c0-7.1.309-10.6.515-13.383-31.194-19.252-39.945-25.223-44.68-30.576l-.515.1a100.123,100.123,0,0,0,2.265,22.134c2.471,1.03,4.941,2.265,13.589,7.309-5.147,2.574-10.913,5.147-16.369,7.412a114.017,114.017,0,0,1,.515,13.59v29.649a36.388,36.388,0,0,0,11.736,10.6h.309c4.839-3.5,10.3-7.1,15.545-10.4a40.984,40.984,0,0,0,9.471,10.5M209.32,313.734h.309c4.942-3.4,8.236-5.765,12.56-9.265v-.309a131.39,131.39,0,0,0-9.471-10.81h-.309c-4.015,2.883-8.236,5.765-12.663,9.472v.309a74.683,74.683,0,0,0,9.574,10.6m492.2,0h.309c4.942-3.4,8.236-5.765,12.56-9.265v-.309a131.387,131.387,0,0,0-9.471-10.81h-.309c-4.015,2.883-8.236,5.765-12.663,9.472v.309a81.482,81.482,0,0,0,9.574,10.6M155.58,375.813l.1-.309V341.427h14.928v33.459a50.659,50.659,0,0,0,10.6,9.574h.309a184.327,184.327,0,0,1,17.81-11.736l-.824-1.441c-1.75.721-3.191,1.441-4.736,2.162a13.881,13.881,0,0,1-5.148-4.221v-56.21c0-8.648.721-14,2.162-19.457l-.515-.309c-7.412,4.324-16.472,10.089-20.9,14.207.824,2.574,1.235,6.795,1.235,12.045v10.4H155.786v-17.81c0-10.295.721-13.075,2.471-18.428l-.412-.1c-3.6,4.942-4.839,9.163-4.839,19.56v60.432a16.6,16.6,0,0,0-8.133-1.853c-3.089,0-5.765.309-11.222,2.162l-.1-.1c13.177-11.736,13.589-13.8,13.589-22.34V314.969c0-10.81,1.338-15.545,4.221-20.8l-.412-.412a16.519,16.519,0,0,1-8.339,2.471c-4.015,0-9.471-2.059-14.31-2.059a13.312,13.312,0,0,0-9.471,3.6,12.484,12.484,0,0,0-3.6,8.751,17.529,17.529,0,0,0,.824,5.25h.309a7.564,7.564,0,0,1,2.059-3.4,7.677,7.677,0,0,1,5.662-2.162c3.191,0,5.353,1.338,8.339,1.338s5.353-1.029,9.986-4.221l.1.1c-12.148,12.663-12.56,14.928-12.56,24.708v1.75a51.78,51.78,0,0,1-5.559-.515,124.546,124.546,0,0,0-9.986,12.56l.309.309a59.933,59.933,0,0,1,9.883-.721h5.353v16.678c0,10.295-1.441,14.516-10.089,25.635l.412.515c5.148-2.059,8.854-2.985,13.486-2.985,3.4,0,6.589,1.03,8.545,3.088h.309a60.6,60.6,0,0,1,12.972-8.648m473.671-32.944a32.131,32.131,0,0,1,9.883-23.061l-.412-.515c-5.971,1.75-11.427,5.559-15.648,9.677a29.657,29.657,0,0,0-8.545,20.9,32.644,32.644,0,0,0,9.883,24.09c7,7,16.678,11.016,28.723,11.016,11.221,0,19.972-3.809,26.458-10.3a30.91,30.91,0,0,0,8.751-21l-.721-.1a32.711,32.711,0,0,1-17.4,15.236V311.881c2.059.1,3.191.1,3.809.1,7.824,0,13.8-4.941,16.884-20.075l-.721-.309c-2.985,4.015-6.9,5.353-12.457,5.353-9.06,0-23.884-3.6-34.9-3.6-8.648,0-15.957,2.677-20.8,7.515a17.079,17.079,0,0,0-5.251,12.766,21.743,21.743,0,0,0,1.75,8.339h.412a16.982,16.982,0,0,1,4.427-8.236c3.5-3.5,8.545-5.559,15.648-5.559,4.427,0,10.4.515,22.134,2.265-5.559,2.059-12.663,4.942-17.3,7.1a55.439,55.439,0,0,1,1.029,11.428v31.193c0,4.221-.1,5.971-1.338,7.515a22.49,22.49,0,0,1-5.971-4.015c-4.839-4.53-8.339-11.839-8.339-20.8" transform="translate(64.095 -251.867)" fill="#333"/>
  </g>
</svg>
